# xmcd
#
# Track frame offsets: 
#        150
#        11178
#        22749
#        30810
#        41113
#        54251
#        66299
#        79276
#        91149
#        102865
#
# Disc length: 1559 seconds
#
# Revision: 0
# Processed by: cddbd v1.5.2PL0 Copyright (c) Steve Scherf et al.
# Submitted via: ExactAudioCopy v1.0b1
#
DISCID=6d06150a
DTITLE=Johnny Cash - Little Fauss And Big Halsy (Original Soundtrack R
DTITLE=ecording)
DYEAR=1970
DGENRE=Country
TTITLE0=Rollin' Free
TTITLE1=Ballad Of Little Fauss And Big Halsy
TTITLE2=Ballad Of Little Fauss And Big Halsy (Instrumental)
TTITLE3=Union
TTITLE4=The Little Man
TTITLE5=The Little Man (Instrumental)
TTITLE6=Wanted Man
TTITLE7=Rollin' Free
TTITLE8=True Love Is Greater Than Friendship
TTITLE9=Movin'
EXTD=
EXTT0=
EXTT1=
EXTT2=
EXTT3=
EXTT4=
EXTT5=
EXTT6=
EXTT7=
EXTT8=
EXTT9=
PLAYORDER=
